<?xml version="1.0" encoding="UTF-8"?>
<svg viewBox="0 0 1200 720" xmlns="http://www.w3.org/2000/svg" role="img" aria-labelledby="bmf-title bmf-desc" font-family="'Itim', 'Comic Sans MS', 'Marker Felt', 'Sukhumvit Set', 'Sarabun', 'Tahoma', cursive, sans-serif" style="background:#ffffff;">
  <title id="bmf-title">DrugBox — ขั้นตอน Box Movement (หัวใจของแอป)</title>
  <desc id="bmf-desc">เภสัชกรกดปุ่มสลับกล่อง เลือกรูปแบบ เลือกกล่อง บันทึกยาที่ใช้ไป ปลายทาง บันทึก แล้ว Cloud Function จัดการ</desc>
  <defs>
    <filter id="bmf-rough" x="-2%" y="-2%" width="104%" height="104%"><feTurbulence type="fractalNoise" baseFrequency="0.022" numOctaves="2" seed="4" result="noise"/><feDisplacementMap in="SourceGraphic" in2="noise" scale="2.5"/></filter>
    <filter id="bmf-rough-light" x="-2%" y="-2%" width="104%" height="104%"><feTurbulence type="fractalNoise" baseFrequency="0.018" numOctaves="2" seed="2" result="noise"/><feDisplacementMap in="SourceGraphic" in2="noise" scale="1.2"/></filter>
    <marker id="bmf-arrow" viewBox="0 0 14 14" refX="11" refY="7" markerWidth="11" markerHeight="11" orient="auto"><path d="M0,1 L13,7 L0,13 L4,7 z" fill="#1a202c"/></marker>
  </defs>
  <g transform="translate(50, 65)">
    <text font-size="32" font-weight="800" fill="#1a202c"><tspan fill="#ea580c">หัวใจของแอป</tspan> · ขั้นตอน Box Movement</text>
    <text y="32" font-size="14" fill="#94a3b8" font-style="italic">Heart-of-app workflow — what happens when a pharmacist swaps a drug box</text>
    <text y="58" font-size="14" fill="#475569" font-style="italic">เภสัชกรกดสลับกล่อง 1 ครั้ง → ระบบทำงานเบื้องหลังและจบที่การตรวจรอบ</text>
  </g>
  <g transform="translate(1100, 70)" filter="url(#bmf-rough-light)">
    <rect x="-30" y="-30" width="60" height="60" rx="12" fill="#1e3a8a" stroke="#1a202c" stroke-width="2"/>
    <rect x="-17" y="-7" width="34" height="24" rx="2" fill="#ffffff"/>
    <path d="M -8 -7 L -8 -12 Q -8 -15 -5 -15 L 5 -15 Q 8 -15 8 -12 L 8 -7" fill="none" stroke="#ffffff" stroke-width="2.5" stroke-linecap="round"/>
    <text x="0" y="11" text-anchor="middle" font-size="17" font-weight="900" font-style="italic" fill="#1e3a8a" font-family="Georgia, serif">Rx</text>
    <circle cx="22" cy="-22" r="9" fill="#ef4444" stroke="#1a202c" stroke-width="1"/>
  </g>
  <g transform="translate(60, 175)">
    <g><rect x="0" y="0" width="150" height="100" rx="14" fill="#ffd9b3" stroke="#1a202c" stroke-width="2" filter="url(#bmf-rough)"/><circle cx="75" cy="-12" r="13" fill="#fff" stroke="#1a202c" stroke-width="1.8" filter="url(#bmf-rough)"/><text x="75" y="-7" text-anchor="middle" font-size="14" font-weight="900" fill="#1a202c">1</text><text x="75" y="30" text-anchor="middle" font-size="13" font-weight="700" fill="#1a202c">📦 แตะปุ่มส้ม</text><text x="75" y="48" text-anchor="middle" font-size="13" font-weight="700" fill="#1a202c">"เปลี่ยนกล่อง" 🔄</text><text x="75" y="72" text-anchor="middle" font-size="10" fill="#475569" font-style="italic">บนหน้ารายการกล่องยา</text><text x="75" y="88" text-anchor="middle" font-size="9" fill="#94a3b8">toolbar button</text></g>
    <g transform="translate(170, 0)"><rect x="0" y="0" width="160" height="100" rx="14" fill="#fef9c3" stroke="#1a202c" stroke-width="2" filter="url(#bmf-rough)"/><circle cx="80" cy="-12" r="13" fill="#fff" stroke="#1a202c" stroke-width="1.8" filter="url(#bmf-rough)"/><text x="80" y="-7" text-anchor="middle" font-size="14" font-weight="900" fill="#1a202c">2</text><text x="80" y="28" text-anchor="middle" font-size="13" font-weight="700" fill="#1a202c">เลือกรูปแบบ</text><text x="80" y="50" text-anchor="middle" font-size="10" fill="#475569">🔁 สลับ (ใช้บ่อยสุด)</text><text x="80" y="66" text-anchor="middle" font-size="10" fill="#475569">⬅️ รับคืนเฉยๆ</text><text x="80" y="82" text-anchor="middle" font-size="10" fill="#475569">➡️ จ่ายเฉยๆ</text></g>
    <g transform="translate(350, 0)"><rect x="0" y="0" width="160" height="100" rx="14" fill="#e9d5ff" stroke="#1a202c" stroke-width="2" filter="url(#bmf-rough)"/><circle cx="80" cy="-12" r="13" fill="#fff" stroke="#1a202c" stroke-width="1.8" filter="url(#bmf-rough)"/><text x="80" y="-7" text-anchor="middle" font-size="14" font-weight="900" fill="#1a202c">3</text><text x="80" y="28" text-anchor="middle" font-size="13" font-weight="700" fill="#1a202c">เลือกกล่อง A / B</text><text x="80" y="50" text-anchor="middle" font-size="10" fill="#9a3412" font-style="italic">A = รับคืน (ส้ม)</text><text x="80" y="66" text-anchor="middle" font-size="10" fill="#0d9488" font-style="italic">B = จ่ายออก (เขียว)</text><text x="80" y="84" text-anchor="middle" font-size="9" fill="#94a3b8">สลับ: filter ประเภทเดียวกัน</text></g>
    <g transform="translate(530, 0)"><rect x="0" y="0" width="180" height="100" rx="14" fill="#fde68a" stroke="#1a202c" stroke-width="2.5" filter="url(#bmf-rough)"/><circle cx="90" cy="-12" r="13" fill="#fff" stroke="#1a202c" stroke-width="1.8" filter="url(#bmf-rough)"/><text x="90" y="-7" text-anchor="middle" font-size="14" font-weight="900" fill="#1a202c">4</text><g transform="translate(155, -16)"><rect x="-22" y="-7" width="44" height="14" rx="7" fill="#ef4444" stroke="#1a202c" stroke-width="1" filter="url(#bmf-rough-light)"/><text x="0" y="3" text-anchor="middle" font-size="9" font-weight="900" fill="#ffffff">NEW</text></g><text x="90" y="28" text-anchor="middle" font-size="13" font-weight="700" fill="#1a202c">📋 ยาที่ใช้ไป</text><text x="90" y="44" text-anchor="middle" font-size="10" fill="#92400e" font-style="italic">(ไม่บังคับ · optional)</text><text x="90" y="62" text-anchor="middle" font-size="10" fill="#475569">เภสัชกรเลือกยา + จำนวน</text><text x="90" y="76" text-anchor="middle" font-size="10" fill="#475569">ตามที่พยาบาลแจ้ง</text><text x="90" y="92" text-anchor="middle" font-size="9" fill="#94a3b8" font-style="italic">แทนกระดาษโน้ตในกล่อง</text></g>
    <g transform="translate(730, 0)"><rect x="0" y="0" width="160" height="100" rx="14" fill="#bfdbfe" stroke="#1a202c" stroke-width="2" filter="url(#bmf-rough)"/><circle cx="80" cy="-12" r="13" fill="#fff" stroke="#1a202c" stroke-width="1.8" filter="url(#bmf-rough)"/><text x="80" y="-7" text-anchor="middle" font-size="14" font-weight="900" fill="#1a202c">5</text><text x="80" y="28" text-anchor="middle" font-size="13" font-weight="700" fill="#1a202c">📍 ปลายทาง</text><text x="80" y="50" text-anchor="middle" font-size="10" fill="#475569">รับคืน: ห้องยาย่อย</text><text x="80" y="66" text-anchor="middle" font-size="10" fill="#475569">จ่าย: ER / OR / ICU</text><text x="80" y="84" text-anchor="middle" font-size="9" fill="#94a3b8">มี preview ขึ้นทันที</text></g>
    <g transform="translate(910, 0)"><rect x="0" y="0" width="160" height="100" rx="14" fill="#bbf7d0" stroke="#1a202c" stroke-width="2.5" filter="url(#bmf-rough)"/><circle cx="80" cy="-12" r="13" fill="#fff" stroke="#1a202c" stroke-width="1.8" filter="url(#bmf-rough)"/><text x="80" y="-7" text-anchor="middle" font-size="14" font-weight="900" fill="#1a202c">6</text><text x="80" y="32" text-anchor="middle" font-size="13" font-weight="700" fill="#1a202c">💾 บันทึก</text><text x="80" y="54" text-anchor="middle" font-size="10" fill="#475569" font-style="italic">เขียน /boxMovements/{id}</text><text x="80" y="74" text-anchor="middle" font-size="10" fill="#475569" font-style="italic">เข้า Firestore</text></g>
    <g stroke="#1a202c" stroke-width="1.5" fill="none" stroke-dasharray="6,4" filter="url(#bmf-rough)">
      <line x1="150" y1="50" x2="168" y2="50" marker-end="url(#bmf-arrow)"/>
      <line x1="330" y1="50" x2="348" y2="50" marker-end="url(#bmf-arrow)"/>
      <line x1="510" y1="50" x2="528" y2="50" marker-end="url(#bmf-arrow)"/>
      <line x1="710" y1="50" x2="728" y2="50" marker-end="url(#bmf-arrow)"/>
      <line x1="890" y1="50" x2="908" y2="50" marker-end="url(#bmf-arrow)"/>
    </g>
  </g>
  <g stroke="#1a202c" stroke-width="1.5" fill="none" stroke-dasharray="6,4" filter="url(#bmf-rough)"><line x1="1050" y1="275" x2="1050" y2="355" marker-end="url(#bmf-arrow)"/></g>
  <g transform="translate(60, 365)">
    <rect x="700" y="0" width="400" height="120" rx="16" fill="#fed7aa" stroke="#1a202c" stroke-width="2.5" filter="url(#bmf-rough)"/>
    <circle cx="900" cy="-12" r="13" fill="#fff" stroke="#1a202c" stroke-width="1.8" filter="url(#bmf-rough)"/>
    <text x="900" y="-7" text-anchor="middle" font-size="14" font-weight="900" fill="#1a202c">7</text>
    <text x="900" y="28" text-anchor="middle" font-size="15" font-weight="700" fill="#1a202c">⚙️ Cloud Function ทำงานต่ออัตโนมัติ</text>
    <text x="900" y="46" text-anchor="middle" font-size="11" fill="#9a3412" font-style="italic">onBoxMovementCreated · ฝั่ง server</text>
    <line x1="730" y1="56" x2="1070" y2="56" stroke="#9a3412" stroke-opacity="0.3"/>
    <text x="720" y="78" font-size="11" fill="#475569">• ย้ายกล่อง (orgId / location)</text>
    <text x="720" y="94" font-size="11" fill="#475569">• ทำกล่อง A → "รอตรวจ" (pending)</text>
    <text x="720" y="110" font-size="11" fill="#475569">• เขียน audit log</text>
  </g>
  <g stroke="#1a202c" stroke-width="1.5" fill="none" stroke-dasharray="6,4" filter="url(#bmf-rough)"><line x1="760" y1="425" x2="540" y2="425" marker-end="url(#bmf-arrow)"/></g>
  <g transform="translate(60, 365)">
    <rect x="180" y="0" width="340" height="120" rx="16" fill="#fbcfe8" stroke="#1a202c" stroke-width="2" filter="url(#bmf-rough)"/>
    <text x="350" y="28" text-anchor="middle" font-size="15" font-weight="700" fill="#1a202c">📦 กล่อง A → "รอตรวจ"</text>
    <text x="350" y="46" text-anchor="middle" font-size="11" fill="#475569" font-style="italic">มี pill สีส้มขึ้นบน card</text>
    <line x1="210" y1="56" x2="490" y2="56" stroke="#1a202c" stroke-opacity="0.2"/>
    <text x="350" y="78" text-anchor="middle" font-size="11" fill="#475569">• ห้ามจ่ายซ้ำจนกว่าจะตรวจ</text>
    <text x="350" y="94" text-anchor="middle" font-size="11" fill="#475569">• ต้อง Inspect ก่อน</text>
    <text x="350" y="110" text-anchor="middle" font-size="11" fill="#475569">• เห็นใน banner "กล่องรอตรวจ"</text>
  </g>
  <g stroke="#1a202c" stroke-width="1.5" fill="none" stroke-dasharray="6,4" filter="url(#bmf-rough)"><line x1="290" y1="495" x2="290" y2="545" marker-end="url(#bmf-arrow)"/></g>
  <g transform="translate(60, 555)">
    <g transform="translate(20, 0)"><rect x="0" y="0" width="190" height="90" rx="14" fill="#bfdbfe" stroke="#1a202c" stroke-width="2" filter="url(#bmf-rough)"/><circle cx="95" cy="-12" r="13" fill="#fff" stroke="#1a202c" stroke-width="1.8" filter="url(#bmf-rough)"/><text x="95" y="-7" text-anchor="middle" font-size="14" font-weight="900" fill="#1a202c">8</text><text x="95" y="30" text-anchor="middle" font-size="14" font-weight="700" fill="#1a202c">แตะกล่องรอตรวจ</text><text x="95" y="50" text-anchor="middle" font-size="11" fill="#475569" font-style="italic">เปิดหน้า Box Detail</text><text x="95" y="68" text-anchor="middle" font-size="10" fill="#92400e" font-style="italic">เห็น banner ยาที่ใช้ไป 📋</text><text x="95" y="82" text-anchor="middle" font-size="9" fill="#94a3b8">เภสัชกรเช็คยาในกล่อง</text></g>
    <g transform="translate(240, 0)"><rect x="0" y="0" width="190" height="90" rx="14" fill="#bbf7d0" stroke="#1a202c" stroke-width="2" filter="url(#bmf-rough)"/><circle cx="95" cy="-12" r="13" fill="#fff" stroke="#1a202c" stroke-width="1.8" filter="url(#bmf-rough)"/><text x="95" y="-7" text-anchor="middle" font-size="14" font-weight="900" fill="#1a202c">9</text><text x="95" y="32" text-anchor="middle" font-size="14" font-weight="700" fill="#1a202c">✓ ตรวจกล่อง</text><text x="95" y="54" text-anchor="middle" font-size="11" fill="#475569" font-style="italic">Update → ตรวจกล่อง → บันทึก</text><text x="95" y="72" text-anchor="middle" font-size="9" fill="#94a3b8">log ฝัง summary ยาที่ใช้ไป</text></g>
    <g transform="translate(460, 0)"><rect x="0" y="0" width="220" height="90" rx="14" fill="#fef9c3" stroke="#1a202c" stroke-width="2.5" filter="url(#bmf-rough)"/><circle cx="110" cy="-12" r="13" fill="#fff" stroke="#1a202c" stroke-width="1.8" filter="url(#bmf-rough)"/><text x="110" y="-7" text-anchor="middle" font-size="14" font-weight="900" fill="#16a34a">✓</text><text x="110" y="32" text-anchor="middle" font-size="14" font-weight="700" fill="#1a202c">🎉 เคลียร์ pending</text><text x="110" y="54" text-anchor="middle" font-size="11" fill="#475569" font-style="italic">กล่อง A พร้อมจ่ายอีกครั้ง</text><text x="110" y="72" text-anchor="middle" font-size="9" fill="#94a3b8">วงจรครบรอบ</text></g>
    <g stroke="#1a202c" stroke-width="1.5" fill="none" stroke-dasharray="6,4" filter="url(#bmf-rough)"><line x1="210" y1="45" x2="238" y2="45" marker-end="url(#bmf-arrow)"/><line x1="430" y1="45" x2="458" y2="45" marker-end="url(#bmf-arrow)"/></g>
  </g>
  <g transform="translate(770, 555)">
    <rect x="0" y="0" width="320" height="80" rx="12" fill="#ffffff" stroke="#94a3b8" stroke-width="1.2" stroke-dasharray="4,3" filter="url(#bmf-rough-light)"/>
    <text x="160" y="22" text-anchor="middle" font-size="12" font-weight="700" fill="#1a202c">ใครทำอะไร</text>
    <text x="20" y="44" font-size="10.5" fill="#475569">👤 เภสัชกร: ขั้นที่ 1-6 และ 8-9</text>
    <text x="20" y="60" font-size="10.5" fill="#475569">⚙️ Cloud Function: ขั้นที่ 7 (ฝั่ง server)</text>
    <text x="20" y="74" font-size="9" fill="#94a3b8" font-style="italic">ทุกขั้นถูกบันทึกใน /logs + audit trail</text>
  </g>
  <text x="1160" y="700" text-anchor="end" font-size="11" font-style="italic" fill="#94a3b8">DrugBox · by adisak_kob · drugboxcare.com</text>
</svg>
