<?xml version="1.0" encoding="UTF-8"?>
<svg viewBox="0 0 1200 660" xmlns="http://www.w3.org/2000/svg" role="img" aria-labelledby="ntf-title ntf-desc" font-family="'Itim', 'Comic Sans MS', 'Marker Felt', 'Sukhumvit Set', 'Sarabun', 'Tahoma', cursive, sans-serif" style="background:#ffffff;">
  <title id="ntf-title">DrugBox — ตารางเวลาการแจ้งเตือน push</title>
  <desc id="ntf-desc">การแจ้งเตือนทุกอย่างยิงเวลา 8 โมงเช้า</desc>
  <defs>
    <filter id="ntf-rough" x="-2%" y="-2%" width="104%" height="104%"><feTurbulence type="fractalNoise" baseFrequency="0.022" numOctaves="2" seed="4" result="noise"/><feDisplacementMap in="SourceGraphic" in2="noise" scale="2.5"/></filter>
    <filter id="ntf-rough-light" x="-2%" y="-2%" width="104%" height="104%"><feTurbulence type="fractalNoise" baseFrequency="0.018" numOctaves="2" seed="2" result="noise"/><feDisplacementMap in="SourceGraphic" in2="noise" scale="1.2"/></filter>
  </defs>
  <g transform="translate(50, 65)">
    <text font-size="32" font-weight="800" fill="#1a202c"><tspan fill="#0d9488">push</tspan> เด้งวันไหนบ้าง?</text>
    <rect x="-4" y="14" width="78" height="14" fill="#fde68a" filter="url(#ntf-rough)" opacity="0.8"/>
    <text y="32" font-size="13" fill="#94a3b8" font-style="italic">When does push fire?</text>
    <text y="58" font-size="14" fill="#475569" font-style="italic">ทุกอย่างยิงเวลา 08:00 ตามเวลาไทย · วันต่างกันได้แตกต่างกัน</text>
  </g>
  <g transform="translate(1100, 70)" filter="url(#ntf-rough-light)">
    <rect x="-30" y="-30" width="60" height="60" rx="12" fill="#1e3a8a" stroke="#1a202c" stroke-width="2"/>
    <rect x="-17" y="-7" width="34" height="24" rx="2" fill="#ffffff"/>
    <path d="M -8 -7 L -8 -12 Q -8 -15 -5 -15 L 5 -15 Q 8 -15 8 -12 L 8 -7" fill="none" stroke="#ffffff" stroke-width="2.5" stroke-linecap="round"/>
    <text x="0" y="11" text-anchor="middle" font-size="17" font-weight="900" font-style="italic" fill="#1e3a8a" font-family="Georgia, serif">Rx</text>
    <circle cx="22" cy="-22" r="9" fill="#ef4444" stroke="#1a202c" stroke-width="1"/>
  </g>
  <g transform="translate(60, 180)"><text font-size="11" font-weight="700" fill="#94a3b8" letter-spacing="1.5">⏰ ทุก 08:00 น.</text></g>
  <g transform="translate(70, 200)">
    <g transform="translate(0, 0)">
      <rect x="0" y="0" width="155" height="320" rx="14" fill="#fef9c3" stroke="#1a202c" stroke-width="2.5" filter="url(#ntf-rough)"/>
      <text x="77" y="28" text-anchor="middle" font-size="15" font-weight="800" fill="#1a202c">จันทร์ · MON</text>
      <text x="77" y="46" text-anchor="middle" font-size="10" fill="#475569" font-style="italic">วันสรุปสัปดาห์</text>
      <line x1="15" y1="56" x2="140" y2="56" stroke="#1a202c" stroke-opacity="0.2"/>
      <g transform="translate(8, 70)"><rect x="0" y="0" width="139" height="68" rx="8" fill="#ffffff" stroke="#1a202c" stroke-width="1.2" filter="url(#ntf-rough-light)"/><text x="69" y="18" text-anchor="middle" font-size="12" font-weight="700" fill="#1a202c">📅 สรุปสัปดาห์</text><text x="8" y="36" font-size="9.5" fill="#475569">ทั้งหมด N กล่อง</text><text x="8" y="48" font-size="9.5" fill="#dc2626">🔴 หมดอายุ N</text><text x="8" y="60" font-size="9.5" fill="#475569">🟡 ใกล้หมด N · 🟢 ปกติ N</text></g>
      <g transform="translate(8, 148)"><rect x="0" y="0" width="139" height="60" rx="8" fill="#fee2e2" stroke="#1a202c" stroke-width="1.2" filter="url(#ntf-rough-light)"/><text x="69" y="18" text-anchor="middle" font-size="12" font-weight="700" fill="#1a202c">🚨 หมดอายุ</text><text x="8" y="34" font-size="9.5" fill="#475569">CPR 1 (5 วันที่ผ่านมา)</text><text x="8" y="46" font-size="9.5" fill="#475569">… รวม 3 กล่อง</text><text x="69" y="56" text-anchor="middle" font-size="9" fill="#94a3b8" font-style="italic">ส่งถ้ามี</text></g>
      <g transform="translate(8, 218)"><rect x="0" y="0" width="139" height="60" rx="8" fill="#fef3c7" stroke="#1a202c" stroke-width="1.2" filter="url(#ntf-rough-light)"/><text x="69" y="18" text-anchor="middle" font-size="12" font-weight="700" fill="#1a202c">⏰ ใกล้หมดอายุ</text><text x="8" y="34" font-size="9.5" fill="#475569">Emergency 1 (3 วัน)</text><text x="8" y="46" font-size="9.5" fill="#475569">… รวม 5 กล่อง</text><text x="69" y="56" text-anchor="middle" font-size="9" fill="#94a3b8" font-style="italic">ส่งถ้ามี</text></g>
      <text x="77" y="305" text-anchor="middle" font-size="10" font-weight="700" fill="#9a3412">สูงสุด 3 banner</text>
    </g>
    <g transform="translate(165, 0)"><rect x="0" y="0" width="125" height="220" rx="14" fill="#ffffff" stroke="#1a202c" stroke-width="1.8" filter="url(#ntf-rough)"/><text x="62" y="28" text-anchor="middle" font-size="14" font-weight="800" fill="#1a202c">อังคาร · TUE</text><text x="62" y="46" text-anchor="middle" font-size="10" fill="#475569" font-style="italic">เฉพาะหมดอายุ</text><line x1="12" y1="56" x2="113" y2="56" stroke="#1a202c" stroke-opacity="0.2"/><g transform="translate(8, 70)"><rect x="0" y="0" width="109" height="60" rx="8" fill="#fee2e2" stroke="#1a202c" stroke-width="1.2" filter="url(#ntf-rough-light)"/><text x="54" y="18" text-anchor="middle" font-size="12" font-weight="700" fill="#1a202c">🚨 หมดอายุ</text><text x="54" y="42" text-anchor="middle" font-size="20" fill="#dc2626" font-weight="900">ถ้ามี</text></g><g transform="translate(8, 138)"><rect x="0" y="0" width="109" height="40" rx="8" fill="#f8fafc" stroke="#cbd5e1" stroke-width="1" stroke-dasharray="3,2" filter="url(#ntf-rough-light)"/><text x="54" y="17" text-anchor="middle" font-size="9.5" fill="#94a3b8">ไม่มีหมดอายุ</text><text x="54" y="32" text-anchor="middle" font-size="11" font-weight="700" fill="#94a3b8">→ เงียบ 🔕</text></g></g>
    <g transform="translate(298, 0)"><rect x="0" y="0" width="125" height="220" rx="14" fill="#ffffff" stroke="#1a202c" stroke-width="1.8" filter="url(#ntf-rough)"/><text x="62" y="28" text-anchor="middle" font-size="14" font-weight="800" fill="#1a202c">พุธ · WED</text><text x="62" y="46" text-anchor="middle" font-size="10" fill="#475569" font-style="italic">เฉพาะหมดอายุ</text><line x1="12" y1="56" x2="113" y2="56" stroke="#1a202c" stroke-opacity="0.2"/><g transform="translate(8, 70)"><rect x="0" y="0" width="109" height="60" rx="8" fill="#fee2e2" stroke="#1a202c" stroke-width="1.2" filter="url(#ntf-rough-light)"/><text x="54" y="18" text-anchor="middle" font-size="12" font-weight="700" fill="#1a202c">🚨 หมดอายุ</text><text x="54" y="42" text-anchor="middle" font-size="20" fill="#dc2626" font-weight="900">ถ้ามี</text></g><g transform="translate(8, 138)"><rect x="0" y="0" width="109" height="40" rx="8" fill="#f8fafc" stroke="#cbd5e1" stroke-width="1" stroke-dasharray="3,2" filter="url(#ntf-rough-light)"/><text x="54" y="17" text-anchor="middle" font-size="9.5" fill="#94a3b8">ไม่มีหมดอายุ</text><text x="54" y="32" text-anchor="middle" font-size="11" font-weight="700" fill="#94a3b8">→ เงียบ 🔕</text></g></g>
    <g transform="translate(431, 0)"><rect x="0" y="0" width="125" height="220" rx="14" fill="#ffffff" stroke="#1a202c" stroke-width="1.8" filter="url(#ntf-rough)"/><text x="62" y="28" text-anchor="middle" font-size="14" font-weight="800" fill="#1a202c">พฤหัส · THU</text><text x="62" y="46" text-anchor="middle" font-size="10" fill="#475569" font-style="italic">เฉพาะหมดอายุ</text><line x1="12" y1="56" x2="113" y2="56" stroke="#1a202c" stroke-opacity="0.2"/><g transform="translate(8, 70)"><rect x="0" y="0" width="109" height="60" rx="8" fill="#fee2e2" stroke="#1a202c" stroke-width="1.2" filter="url(#ntf-rough-light)"/><text x="54" y="18" text-anchor="middle" font-size="12" font-weight="700" fill="#1a202c">🚨 หมดอายุ</text><text x="54" y="42" text-anchor="middle" font-size="20" fill="#dc2626" font-weight="900">ถ้ามี</text></g><g transform="translate(8, 138)"><rect x="0" y="0" width="109" height="40" rx="8" fill="#f8fafc" stroke="#cbd5e1" stroke-width="1" stroke-dasharray="3,2" filter="url(#ntf-rough-light)"/><text x="54" y="17" text-anchor="middle" font-size="9.5" fill="#94a3b8">ไม่มีหมดอายุ</text><text x="54" y="32" text-anchor="middle" font-size="11" font-weight="700" fill="#94a3b8">→ เงียบ 🔕</text></g></g>
    <g transform="translate(564, 0)"><rect x="0" y="0" width="125" height="220" rx="14" fill="#ffffff" stroke="#1a202c" stroke-width="1.8" filter="url(#ntf-rough)"/><text x="62" y="28" text-anchor="middle" font-size="14" font-weight="800" fill="#1a202c">ศุกร์ · FRI</text><text x="62" y="46" text-anchor="middle" font-size="10" fill="#475569" font-style="italic">เฉพาะหมดอายุ</text><line x1="12" y1="56" x2="113" y2="56" stroke="#1a202c" stroke-opacity="0.2"/><g transform="translate(8, 70)"><rect x="0" y="0" width="109" height="60" rx="8" fill="#fee2e2" stroke="#1a202c" stroke-width="1.2" filter="url(#ntf-rough-light)"/><text x="54" y="18" text-anchor="middle" font-size="12" font-weight="700" fill="#1a202c">🚨 หมดอายุ</text><text x="54" y="42" text-anchor="middle" font-size="20" fill="#dc2626" font-weight="900">ถ้ามี</text></g><g transform="translate(8, 138)"><rect x="0" y="0" width="109" height="40" rx="8" fill="#f8fafc" stroke="#cbd5e1" stroke-width="1" stroke-dasharray="3,2" filter="url(#ntf-rough-light)"/><text x="54" y="17" text-anchor="middle" font-size="9.5" fill="#94a3b8">ไม่มีหมดอายุ</text><text x="54" y="32" text-anchor="middle" font-size="11" font-weight="700" fill="#94a3b8">→ เงียบ 🔕</text></g></g>
    <g transform="translate(697, 0)"><rect x="0" y="0" width="125" height="220" rx="14" fill="#ffffff" stroke="#1a202c" stroke-width="1.8" filter="url(#ntf-rough)"/><text x="62" y="28" text-anchor="middle" font-size="14" font-weight="800" fill="#1a202c">เสาร์ · SAT</text><text x="62" y="46" text-anchor="middle" font-size="10" fill="#475569" font-style="italic">เฉพาะหมดอายุ</text><line x1="12" y1="56" x2="113" y2="56" stroke="#1a202c" stroke-opacity="0.2"/><g transform="translate(8, 70)"><rect x="0" y="0" width="109" height="60" rx="8" fill="#fee2e2" stroke="#1a202c" stroke-width="1.2" filter="url(#ntf-rough-light)"/><text x="54" y="18" text-anchor="middle" font-size="12" font-weight="700" fill="#1a202c">🚨 หมดอายุ</text><text x="54" y="42" text-anchor="middle" font-size="20" fill="#dc2626" font-weight="900">ถ้ามี</text></g><g transform="translate(8, 138)"><rect x="0" y="0" width="109" height="40" rx="8" fill="#f8fafc" stroke="#cbd5e1" stroke-width="1" stroke-dasharray="3,2" filter="url(#ntf-rough-light)"/><text x="54" y="17" text-anchor="middle" font-size="9.5" fill="#94a3b8">ไม่มีหมดอายุ</text><text x="54" y="32" text-anchor="middle" font-size="11" font-weight="700" fill="#94a3b8">→ เงียบ 🔕</text></g></g>
    <g transform="translate(830, 0)"><rect x="0" y="0" width="125" height="220" rx="14" fill="#ffffff" stroke="#1a202c" stroke-width="1.8" filter="url(#ntf-rough)"/><text x="62" y="28" text-anchor="middle" font-size="14" font-weight="800" fill="#1a202c">อาทิตย์ · SUN</text><text x="62" y="46" text-anchor="middle" font-size="10" fill="#475569" font-style="italic">เฉพาะหมดอายุ</text><line x1="12" y1="56" x2="113" y2="56" stroke="#1a202c" stroke-opacity="0.2"/><g transform="translate(8, 70)"><rect x="0" y="0" width="109" height="60" rx="8" fill="#fee2e2" stroke="#1a202c" stroke-width="1.2" filter="url(#ntf-rough-light)"/><text x="54" y="18" text-anchor="middle" font-size="12" font-weight="700" fill="#1a202c">🚨 หมดอายุ</text><text x="54" y="42" text-anchor="middle" font-size="20" fill="#dc2626" font-weight="900">ถ้ามี</text></g><g transform="translate(8, 138)"><rect x="0" y="0" width="109" height="40" rx="8" fill="#f8fafc" stroke="#cbd5e1" stroke-width="1" stroke-dasharray="3,2" filter="url(#ntf-rough-light)"/><text x="54" y="17" text-anchor="middle" font-size="9.5" fill="#94a3b8">ไม่มีหมดอายุ</text><text x="54" y="32" text-anchor="middle" font-size="11" font-weight="700" fill="#94a3b8">→ เงียบ 🔕</text></g></g>
    <g transform="translate(0, 280)"><text x="77" y="0" text-anchor="middle" font-size="10" fill="#9a3412" font-style="italic">⭐ จันทร์เป็นวันสรุป</text></g>
  </g>
  <g transform="translate(60, 540)">
    <rect x="0" y="0" width="1080" height="80" rx="14" fill="#e9d5ff" stroke="#1a202c" stroke-width="1.8" filter="url(#ntf-rough)"/>
    <text x="20" y="26" font-size="14" font-weight="700" fill="#1a202c">🔔 แจ้งเตือนรอบตรวจ (Inspection rounds)</text>
    <text x="20" y="46" font-size="11" fill="#475569" font-style="italic">— ส่งทุกวัน 08:00 เฉพาะเมื่อรอบตรวจที่เปิดอยู่ใกล้ครบกำหนดหรือเลย deadline</text>
    <text x="20" y="62" font-size="10.5" fill="#475569">"เหลือ 3 วันก่อนปิดรอบ" → "เหลือ 1 วัน" → "เลยกำหนด"</text>
    <text x="20" y="76" font-size="9.5" fill="#94a3b8" font-style="italic">ตารางเวลาแยกอิสระจากการแจ้งเตือนยาหมดอายุด้านบน</text>
  </g>
  <text x="1160" y="645" text-anchor="end" font-size="11" font-style="italic" fill="#94a3b8">DrugBox · by adisak_kob · drugboxcare.com</text>
</svg>
