<?xml version="1.0" encoding="UTF-8"?>
<svg viewBox="0 0 1200 760" xmlns="http://www.w3.org/2000/svg" role="img" aria-labelledby="flf-title flf-desc" font-family="'Itim', 'Comic Sans MS', 'Marker Felt', 'Sukhumvit Set', 'Sarabun', 'Tahoma', cursive, sans-serif" style="background:#ffffff;">
  <title id="flf-title">DrugBox — ครั้งแรกที่เข้าใช้แอป (1 โรงพยาบาล = 1 องค์กร)</title>
  <desc id="flf-desc">หน้า login ของ DrugBox ทางซ้าย ทางขวาคืออธิบายว่า 1 โรงพยาบาลเทียบเท่ากับ 1 องค์กร</desc>
  <defs>
    <filter id="flf-rough" x="-2%" y="-2%" width="104%" height="104%"><feTurbulence type="fractalNoise" baseFrequency="0.022" numOctaves="2" seed="4" result="noise"/><feDisplacementMap in="SourceGraphic" in2="noise" scale="2.5"/></filter>
    <filter id="flf-rough-light" x="-2%" y="-2%" width="104%" height="104%"><feTurbulence type="fractalNoise" baseFrequency="0.018" numOctaves="2" seed="2" result="noise"/><feDisplacementMap in="SourceGraphic" in2="noise" scale="1.2"/></filter>
    <marker id="flf-arrow" viewBox="0 0 14 14" refX="11" refY="7" markerWidth="11" markerHeight="11" orient="auto"><path d="M0,1 L13,7 L0,13 L4,7 z" fill="#1a202c"/></marker>
    <marker id="flf-arrow-teal" viewBox="0 0 14 14" refX="11" refY="7" markerWidth="11" markerHeight="11" orient="auto"><path d="M0,1 L13,7 L0,13 L4,7 z" fill="#0d9488"/></marker>
    <marker id="flf-arrow-amber" viewBox="0 0 14 14" refX="11" refY="7" markerWidth="11" markerHeight="11" orient="auto"><path d="M0,1 L13,7 L0,13 L4,7 z" fill="#d97706"/></marker>
    <marker id="flf-arrow-orange" viewBox="0 0 14 14" refX="11" refY="7" markerWidth="11" markerHeight="11" orient="auto"><path d="M0,1 L13,7 L0,13 L4,7 z" fill="#ea580c"/></marker>
  </defs>
  <g transform="translate(50, 60)">
    <text font-size="30" font-weight="800" fill="#1a202c"><tspan fill="#0d9488">ครั้งแรก</tspan>ที่เข้าใช้แอป</text>
    <text y="28" font-size="13" fill="#94a3b8" font-style="italic">First-time onboarding · 1 hospital = 1 organization</text>
    <text y="54" font-size="14" fill="#475569" font-style="italic">เภสัชกรคนแรกสร้าง org · คนอื่นใช้ invite code เข้า org เดียวกัน</text>
  </g>
  <g transform="translate(1100, 75)" filter="url(#flf-rough-light)">
    <rect x="-30" y="-30" width="60" height="60" rx="12" fill="#1e3a8a" stroke="#1a202c" stroke-width="2"/>
    <rect x="-17" y="-7" width="34" height="24" rx="2" fill="#ffffff"/>
    <path d="M -8 -7 L -8 -12 Q -8 -15 -5 -15 L 5 -15 Q 8 -15 8 -12 L 8 -7" fill="none" stroke="#ffffff" stroke-width="2.5" stroke-linecap="round"/>
    <text x="0" y="11" text-anchor="middle" font-size="17" font-weight="900" font-style="italic" fill="#1e3a8a" font-family="Georgia, serif">Rx</text>
    <circle cx="22" cy="-22" r="9" fill="#ef4444" stroke="#1a202c" stroke-width="1"/>
  </g>
  <g transform="translate(50, 145)">
    <rect x="0" y="0" width="320" height="580" rx="36" fill="#ffffff" stroke="#1a202c" stroke-width="2.5" filter="url(#flf-rough-light)"/>
    <text x="22" y="30" font-size="11" font-weight="700" fill="#16a34a">11:56</text>
    <text x="280" y="30" text-anchor="end" font-size="9" fill="#1a202c">📶 5G 🔋</text>
    <g transform="translate(160, 110)" filter="url(#flf-rough-light)">
      <rect x="-32" y="-32" width="64" height="64" rx="14" fill="#1e3a8a" stroke="#1a202c" stroke-width="1.5"/>
      <rect x="-19" y="-8" width="38" height="28" rx="3" fill="#ffffff"/>
      <path d="M -8 -8 L -8 -14 Q -8 -17 -5 -17 L 5 -17 Q 8 -17 8 -14 L 8 -8" fill="none" stroke="#ffffff" stroke-width="2.5" stroke-linecap="round"/>
      <text x="0" y="11" text-anchor="middle" font-size="18" font-weight="900" font-style="italic" fill="#1e3a8a" font-family="Georgia, serif">Rx</text>
      <circle cx="22" cy="-22" r="9" fill="#ef4444" stroke="#1a202c" stroke-width="1"/>
    </g>
    <text x="160" y="200" text-anchor="middle" font-size="22" font-weight="800" fill="#0d9488">DrugBox</text>
    <text x="160" y="220" text-anchor="middle" font-size="11" fill="#94a3b8">Drug Box Tracking System</text>
    <rect x="22" y="245" width="276" height="40" rx="10" fill="#f1f5f9" stroke="#1a202c" stroke-width="1" filter="url(#flf-rough-light)"/>
    <text x="40" y="270" font-size="12" fill="#94a3b8">✉️  Email</text>
    <rect x="22" y="295" width="276" height="40" rx="10" fill="#f1f5f9" stroke="#1a202c" stroke-width="1" filter="url(#flf-rough-light)"/>
    <text x="40" y="320" font-size="12" fill="#94a3b8">🔒  Password</text>
    <text x="280" y="320" font-size="12" fill="#94a3b8">👁️</text>
    <rect x="22" y="350" width="276" height="40" rx="10" fill="#0d9488" stroke="#1a202c" stroke-width="1.5" filter="url(#flf-rough-light)"/>
    <text x="160" y="375" text-anchor="middle" font-size="13" font-weight="700" fill="#ffffff">Sign In</text>
    <text x="160" y="408" text-anchor="middle" font-size="11" fill="#0d9488">Forgot Password?</text>
    <line x1="40" y1="425" x2="140" y2="425" stroke="#cbd5e1" stroke-width="1"/>
    <text x="160" y="429" text-anchor="middle" font-size="10" fill="#94a3b8">or</text>
    <line x1="180" y1="425" x2="280" y2="425" stroke="#cbd5e1" stroke-width="1"/>
    <rect x="22" y="442" width="276" height="36" rx="8" fill="#000000" filter="url(#flf-rough-light)"/>
    <text x="160" y="465" text-anchor="middle" font-size="12" font-weight="600" fill="#ffffff"> Sign in with Apple</text>
    <rect x="22" y="488" width="276" height="36" rx="8" fill="#ffffff" stroke="#cbd5e1" stroke-width="1" filter="url(#flf-rough-light)"/>
    <text x="40" y="511" font-size="14" font-weight="700" fill="#4285F4">G</text>
    <text x="170" y="511" text-anchor="middle" font-size="12" font-weight="500" fill="#1a202c">Sign in with Google</text>
    <text x="160" y="548" text-anchor="middle" font-size="11" fill="#475569">Don't have an account?</text>
    <text x="160" y="566" text-anchor="middle" font-size="13" font-weight="700" fill="#0d9488">Register</text>
  </g>
  <g transform="translate(395, 695)">
    <ellipse cx="0" cy="20" rx="92" ry="26" fill="#fff7ed" stroke="#ea580c" stroke-width="1.5" filter="url(#flf-rough-light)"/>
    <text x="0" y="14" text-anchor="middle" font-size="12" font-weight="700" font-style="italic" fill="#9a3412">💡 ครั้งแรก</text>
    <text x="0" y="32" text-anchor="middle" font-size="12" font-weight="700" font-style="italic" fill="#9a3412">กด "Register"</text>
    <path d="M -90 22 Q -130 26 -160 28" stroke="#ea580c" stroke-width="1.6" fill="none" stroke-dasharray="4,3" filter="url(#flf-rough-light)" marker-end="url(#flf-arrow-orange)"/>
  </g>
  <g transform="translate(440, 175)">
    <g><rect x="0" y="0" width="160" height="80" rx="14" fill="#dbeafe" stroke="#1e3a8a" stroke-width="2" filter="url(#flf-rough)"/><text x="80" y="32" text-anchor="middle" font-size="22" fill="#1a202c">🏥</text><text x="80" y="58" text-anchor="middle" font-size="13" font-weight="700" fill="#1a202c">1 โรงพยาบาล</text><text x="80" y="74" text-anchor="middle" font-size="9" fill="#475569" font-style="italic">1 hospital</text></g>
    <g transform="translate(170, 30)"><text x="0" y="6" font-size="32" font-weight="900" fill="#0d9488" font-family="Georgia, serif">=</text><text x="0" y="36" font-size="9" fill="#94a3b8" font-style="italic">1 : 1</text></g>
    <g transform="translate(220, 0)"><rect x="0" y="0" width="170" height="80" rx="14" fill="#ccfbf1" stroke="#0d9488" stroke-width="2" filter="url(#flf-rough)"/><text x="85" y="32" text-anchor="middle" font-size="22" fill="#1a202c">📁</text><text x="85" y="58" text-anchor="middle" font-size="13" font-weight="700" fill="#1a202c">1 องค์กร DrugBox</text><text x="85" y="74" text-anchor="middle" font-size="9" fill="#475569" font-style="italic">1 organization</text></g>
    <g transform="translate(420, 25)"><text x="0" y="0" font-size="13" fill="#1a202c" font-style="italic">ทุก รพ. ใช้ org แยกกัน</text><text x="0" y="18" font-size="11" fill="#475569" font-style="italic">ข้อมูลกล่องยา · สมาชิก · audit log</text><text x="0" y="32" font-size="11" fill="#475569" font-style="italic">ของแต่ละ รพ. แยกขาดกัน</text></g>
  </g>
  <g stroke="#1a202c" stroke-width="1.5" fill="none" stroke-dasharray="6,4" filter="url(#flf-rough)"><line x1="610" y1="265" x2="610" y2="305" marker-end="url(#flf-arrow)"/></g>
  <g transform="translate(440, 318)"><text font-size="14" font-weight="700" fill="#94a3b8" letter-spacing="1.5">2 ทางเข้า org · TWO PATHS</text></g>
  <g transform="translate(440, 350)">
    <text x="0" y="-3" font-size="13" font-weight="700" fill="#0d9488">Path A · เภสัชกรคนแรก</text>
    <g><rect x="0" y="10" width="170" height="78" rx="12" fill="#ccfbf1" stroke="#0d9488" stroke-width="1.8" filter="url(#flf-rough)"/><text x="85" y="36" text-anchor="middle" font-size="20">💊</text><text x="85" y="58" text-anchor="middle" font-size="12" font-weight="700" fill="#1a202c">เภสัชกรสมัคร</text><text x="85" y="76" text-anchor="middle" font-size="10" fill="#475569" font-style="italic">profession = pharmacist</text></g>
    <line x1="170" y1="48" x2="200" y2="48" stroke="#0d9488" stroke-width="1.5" stroke-dasharray="5,3" marker-end="url(#flf-arrow-teal)" filter="url(#flf-rough)"/>
    <g transform="translate(210, 0)"><rect x="0" y="10" width="170" height="78" rx="12" fill="#ccfbf1" stroke="#0d9488" stroke-width="1.8" filter="url(#flf-rough)"/><text x="85" y="36" text-anchor="middle" font-size="20">➕</text><text x="85" y="58" text-anchor="middle" font-size="12" font-weight="700" fill="#1a202c">"สร้าง org ใหม่"</text><text x="85" y="76" text-anchor="middle" font-size="10" fill="#475569" font-style="italic">ใส่ชื่อ รพ.</text></g>
    <line x1="380" y1="48" x2="410" y2="48" stroke="#0d9488" stroke-width="1.5" stroke-dasharray="5,3" marker-end="url(#flf-arrow-teal)" filter="url(#flf-rough)"/>
    <g transform="translate(420, 0)"><rect x="0" y="10" width="170" height="78" rx="12" fill="#ccfbf1" stroke="#0d9488" stroke-width="1.8" filter="url(#flf-rough)"/><text x="85" y="36" text-anchor="middle" font-size="20">👑</text><text x="85" y="58" text-anchor="middle" font-size="12" font-weight="700" fill="#1a202c">เป็น admin อัตโนมัติ</text><text x="85" y="76" text-anchor="middle" font-size="10" fill="#475569" font-style="italic">2 คนแรกที่ join</text></g>
    <line x1="505" y1="98" x2="505" y2="138" stroke="#0d9488" stroke-width="1.5" stroke-dasharray="5,3" marker-end="url(#flf-arrow-teal)" filter="url(#flf-rough)"/>
  </g>
  <g transform="translate(870, 470)">
    <rect x="0" y="20" width="200" height="100" rx="16" fill="#fef3c7" stroke="#d97706" stroke-width="2.5" filter="url(#flf-rough)"/>
    <text x="100" y="50" text-anchor="middle" font-size="20">🔑</text>
    <text x="100" y="76" text-anchor="middle" font-size="14" font-weight="700" fill="#1a202c">Invite Code</text>
    <text x="100" y="94" text-anchor="middle" font-size="11" font-weight="700" fill="#d97706" font-family="ui-monospace, monospace">"DRUGBOX-2026"</text>
    <text x="100" y="110" text-anchor="middle" font-size="9" fill="#92400e" font-style="italic">admin regen ได้ตลอด</text>
  </g>
  <g transform="translate(440, 620)">
    <text x="0" y="-3" font-size="13" font-weight="700" fill="#d97706">Path B · คนอื่นในโรงพยาบาลเดียวกัน</text>
    <g><rect x="0" y="10" width="170" height="78" rx="12" fill="#fef3c7" stroke="#d97706" stroke-width="1.8" filter="url(#flf-rough)"/><text x="85" y="36" text-anchor="middle" font-size="20">👥</text><text x="85" y="58" text-anchor="middle" font-size="12" font-weight="700" fill="#1a202c">เภสัชกร / พยาบาล</text><text x="85" y="76" text-anchor="middle" font-size="10" fill="#475569" font-style="italic">/ เจ้าหน้าที่ สมัคร</text></g>
    <line x1="170" y1="48" x2="200" y2="48" stroke="#d97706" stroke-width="1.5" stroke-dasharray="5,3" marker-end="url(#flf-arrow-amber)" filter="url(#flf-rough)"/>
    <g transform="translate(210, 0)"><rect x="0" y="10" width="170" height="78" rx="12" fill="#fef3c7" stroke="#d97706" stroke-width="1.8" filter="url(#flf-rough)"/><text x="85" y="36" text-anchor="middle" font-size="20">🔑</text><text x="85" y="58" text-anchor="middle" font-size="12" font-weight="700" fill="#1a202c">ใส่ invite code</text><text x="85" y="76" text-anchor="middle" font-size="10" fill="#475569" font-style="italic">ขอจาก admin</text></g>
    <line x1="380" y1="48" x2="410" y2="48" stroke="#d97706" stroke-width="1.5" stroke-dasharray="5,3" marker-end="url(#flf-arrow-amber)" filter="url(#flf-rough)"/>
    <g transform="translate(420, 0)"><rect x="0" y="10" width="170" height="78" rx="12" fill="#fef3c7" stroke="#d97706" stroke-width="1.8" filter="url(#flf-rough)"/><text x="85" y="36" text-anchor="middle" font-size="20">✅</text><text x="85" y="58" text-anchor="middle" font-size="12" font-weight="700" fill="#1a202c">join org เดียวกัน</text><text x="85" y="76" text-anchor="middle" font-size="10" fill="#475569" font-style="italic">เห็นกล่องยาทันที</text></g>
    <line x1="505" y1="10" x2="505" y2="-30" stroke="#d97706" stroke-width="1.5" stroke-dasharray="5,3" filter="url(#flf-rough)"/>
  </g>
  <text x="1160" y="745" text-anchor="end" font-size="11" font-style="italic" fill="#94a3b8">DrugBox · by adisak_kob · drugboxcare.com</text>
</svg>
